<?xml version="1.0" encoding="UTF-8" standalone="no"?>
<svg
   viewBox="0 0 566.97478 121.9449"
   width="566.97479"
   height="121.94489"
   version="1.1"
   id="svg4887"
   sodipodi:docname="STAI HUB LOGO V1 pdf.pdf"
   inkscape:version="1.2.2 (732a01da63, 2022-12-09)"
   xmlns:inkscape="http://www.inkscape.org/namespaces/inkscape"
   xmlns:sodipodi="http://sodipodi.sourceforge.net/DTD/sodipodi-0.dtd"
   xmlns="http://www.w3.org/2000/svg"
   xmlns:svg="http://www.w3.org/2000/svg">
  <sodipodi:namedview
     id="namedview4889"
     pagecolor="#323232"
     bordercolor="#000000"
     borderopacity="0.25"
     inkscape:showpageshadow="2"
     inkscape:pageopacity="0"
     inkscape:pagecheckerboard="0"
     inkscape:deskcolor="#d1d1d1"
     showgrid="false"
     inkscape:zoom="1.4142136"
     inkscape:cx="341.53258"
     inkscape:cy="-13.081475"
     inkscape:window-width="3440"
     inkscape:window-height="1351"
     inkscape:window-x="2551"
     inkscape:window-y="53"
     inkscape:window-maximized="1"
     inkscape:current-layer="g4885" />
  <desc
     id="desc4673">STAI HUB Logo V2.dxf - scale = 1.000000, origin = (0.000000, 0.000000), method = manual</desc>
  <defs
     id="defs4687">
    <marker
       id="DistanceX"
       orient="auto"
       refX="0"
       refY="0"
       style="overflow:visible">
      <path
         d="M 3,-3 -3,3 M 0,-5 V 5"
         style="stroke:#000000;stroke-width:0.5"
         id="path4675" />
    </marker>
    <pattern
       id="Hatch"
       patternUnits="userSpaceOnUse"
       width="8"
       height="8"
       x="0"
       y="0">
      <path
         d="M8 4 l-4,4"
         stroke="#000000"
         stroke-width="0.25"
         linecap="square"
         id="path4678" />
      <path
         d="M6 2 l-4,4"
         stroke="#000000"
         stroke-width="0.25"
         linecap="square"
         id="path4680" />
      <path
         d="M4 0 l-4,4"
         stroke="#000000"
         stroke-width="0.25"
         linecap="square"
         id="path4682" />
    </pattern>
    <symbol
       id="*MODEL_SPACE" />
    <symbol
       id="*PAPER_SPACE" />
  </defs>
  <g
     inkscape:groupmode="layer"
     inkscape:label="0"
     id="g4885"
     transform="translate(-75.79004,-487.73922)">
    <path
       d="m 403.58783,488.23922 a 22.677165,22.677165 0 0 0 -22.67716,22.67717 v 75.59055 a 22.677165,22.677165 0 0 0 22.67716,22.67717 h 215.99981 a 22.677165,22.677165 0 0 0 22.67717,-22.67717 v -75.59055 a 22.677165,22.677165 0 0 0 -22.67717,-22.67717 z"
       style="display:inline;fill:#674ee9;fill-opacity:1;stroke:#674ee9;stroke-opacity:1"
       id="path4771"
       inkscape:label="the PILL" />
    <path
       style="fill:#1a1131;fill-opacity:1;stroke:#1a1131;stroke-width:0.946;stroke-opacity:1"
       d="m 487.97311,520.37343 -0.42266,0.0362 -0.42267,0.14491 -0.37436,0.15699 -0.49512,0.24152 -0.20529,0.28983 -0.28983,0.2536 -0.2053,0.31398 -0.0966,0.31398 -0.0725,0.32606 -0.0725,0.32605 0.0121,0.24153 0.0185,30.81268 0.0854,1.51996 0.1859,1.69795 c 0,0 0.0362,0.78495 0.0604,0.89363 0.0242,0.10869 0.0483,0.39852 0.0966,0.72457 0.0483,0.32606 0.15699,1.02648 0.15699,1.02648 0,0 -0.0362,0.10868 0.20529,0.99024 0.24152,0.88156 0.33813,1.44914 0.33813,1.44914 l 0.5072,1.66651 c 0,0 0.38644,0.88156 0.41059,0.95401 0.0242,0.0725 0.2536,0.62796 0.27775,0.67627 0.0242,0.0483 0.7608,1.53367 0.7608,1.53367 0,0 0.37436,0.85741 0.38644,0.90571 0.0121,0.0483 0.57965,0.74872 0.57965,0.74872 0,0 0.54343,0.57966 0.59173,0.65211 0.0483,0.0725 0.30191,0.41059 0.37436,0.53136 0.0725,0.12076 0.38644,0.48304 0.44682,0.56757 0.0604,0.0845 0.59173,0.61589 0.64004,0.66419 0.0483,0.0483 0.32605,0.26568 0.36228,0.31398 0.0362,0.0483 0.85741,0.89364 0.90571,0.91779 0.0483,0.0242 1.05063,0.88156 1.05063,0.88156 0,0 0.41059,0.2536 0.60381,0.42266 0.19321,0.16907 0.97816,0.64004 0.97816,0.64004 l 0.85741,0.53135 0.89364,0.56758 1.23176,0.47097 1.18347,0.48305 0.89363,0.3019 0.97817,0.26567 1.08685,0.2053 1.50952,0.19322 1.53367,0.2536 1.08686,0.15699 1.38875,0.0604 1.0144,0.0845 1.21969,0.0604 1.36461,0.0483 1.9201,0.0966 c 0,0 0.72457,-0.0362 0.86949,-0.0362 0.14491,0 1.3163,-0.0725 1.3163,-0.0725 0,0 1.19554,-0.0845 1.34045,-0.0725 0.14491,0.0121 1.05063,-0.0725 1.17139,-0.0845 0.12076,-0.0121 1.09893,-0.12076 1.09893,-0.12076 l 0.86948,-0.0725 c 0,0 0.65211,-0.20529 0.77287,-0.20529 0.12077,0 1.24385,-0.2053 1.24385,-0.2053 l 1.13516,-0.26567 1.94426,-0.47097 1.52159,-0.44682 1.46122,-0.73665 1.30422,-0.64003 0.84533,-0.71249 0.71249,-0.61589 0.7608,-0.49512 0.86948,-0.71249 0.84533,-0.94194 1.11101,-1.35253 0.67626,-1.09893 c 0,0 0.66419,-0.91779 0.67627,-0.99025 0.0121,-0.0725 0.49512,-1.08685 0.53135,-1.19554 0.0362,-0.10868 0.62796,-0.84533 0.64004,-0.91778 0.0121,-0.0725 0.15699,-1.02648 0.19321,-1.07478 0.0362,-0.0483 0.4589,-0.86948 0.4589,-0.86948 l 0.24152,-0.77288 c 0,0 0.51928,-1.58197 0.53135,-1.64235 0.0121,-0.0604 0.35021,-1.05063 0.35021,-1.12309 0,-0.0725 0.13284,-0.90571 0.13284,-0.90571 0,0 0.3019,-1.49744 0.33813,-1.60612 0.0362,-0.10869 0.0604,-0.51928 0.0604,-0.7125 0,-0.19322 -0.0483,-0.68834 -0.0483,-0.86948 0,-0.18114 -0.0121,-0.57966 0.0242,-0.78495 0.0362,-0.20529 0.12076,-0.94194 0.12076,-0.94194 l 0.0241,-0.19322 0.0181,-31.01759 c 0,0 0.0423,-0.0664 0.006,-0.28379 -0.0362,-0.21737 -0.0725,-0.30191 -0.0845,-0.35021 -0.0121,-0.0483 -0.0845,-0.2536 -0.0966,-0.3019 -0.0121,-0.0483 -0.12076,-0.27776 -0.12076,-0.27776 l -0.0845,-0.14491 -0.12076,-0.20529 -0.12077,-0.13284 c 0,0 -0.20529,-0.15699 -0.25359,-0.2053 -0.0483,-0.0483 -0.28983,-0.19321 -0.28983,-0.19321 0,0 -0.15699,-0.13284 -0.21737,-0.15699 -0.0604,-0.0242 -0.44682,-0.18115 -0.44682,-0.18115 0,0 -0.0725,-0.0483 -0.14491,-0.0604 -0.0725,-0.0121 -0.53136,-0.0725 -0.53136,-0.0725 l -0.18114,-0.0604 -12.13653,0.0121 -0.27775,0.0604 -0.43474,0.0242 c 0,0 -0.0725,0.0242 -0.2053,0.0845 -0.13283,0.0604 -0.33813,0.12076 -0.33813,0.12076 l -0.41059,0.16906 -0.13284,0.16907 -0.26567,0.35021 -0.15699,0.27775 -0.13284,0.24152 c 0,0 -0.0725,0.19322 -0.0725,0.2536 0,0.0604 -0.0604,0.10869 -0.0725,0.16907 -0.0121,0.0604 -0.0845,0.28983 -0.0845,0.28983 l -0.0241,0.20529 -0.0725,0.2053 0.11448,31.99108 -0.11101,0.75998 -0.0769,0.62336 c 0,0 -0.0854,0.67459 -0.0769,0.7856 0.009,0.111 -0.009,0.40987 -0.0256,0.5038 -0.0171,0.0939 -0.12809,0.55505 -0.14517,0.5892 -0.0171,0.0342 -0.17932,0.4355 -0.17932,0.4355 l -0.22202,0.7856 -0.37572,0.63189 c 0,0 -0.32449,0.44404 -0.34156,0.48673 -0.0171,0.0427 -0.11955,0.17079 -0.21348,0.32449 -0.0939,0.15371 -0.35865,0.56358 -0.40134,0.62336 -0.0427,0.0598 -0.23056,0.1964 -0.29887,0.28179 -0.0683,0.0854 -0.36718,0.5465 -0.36718,0.5465 l -0.41842,0.35865 -0.42696,0.22201 -0.7429,0.50381 c 0,0 -0.61482,0.41842 -0.64898,0.4355 -0.0342,0.0171 -0.7856,0.29033 -0.84537,0.30741 -0.0598,0.0171 -0.59774,0.11954 -0.67459,0.16224 -0.0768,0.0427 -0.65751,0.13663 -0.72583,0.1537 -0.0683,0.0171 -0.18786,0.0427 -0.46965,0.0598 -0.28179,0.0171 -0.75144,0.0512 -0.75144,0.0512 l -0.48673,0.0683 c 0,0 -0.69167,0.11101 -0.80268,0.11101 -0.11101,0 -0.66605,-0.0683 -0.71729,-0.0769 -0.0512,-0.009 -0.24763,-0.0683 -0.5892,-0.0854 -0.34156,-0.0171 -0.50381,-0.0427 -0.69167,-0.0683 -0.18786,-0.0256 -0.52942,-0.0512 -0.69167,-0.0854 -0.16224,-0.0342 -0.69166,-0.1964 -0.75144,-0.20494 -0.0598,-0.009 -0.63189,-0.18786 -0.70021,-0.21348 -0.0683,-0.0256 -1.00761,-0.42696 -1.00761,-0.42696 0,0 -0.70021,-0.52942 -0.73437,-0.55504 -0.0342,-0.0256 -0.48673,-0.49527 -0.52089,-0.52089 -0.0341,-0.0256 -0.52088,-0.32448 -0.63189,-0.47819 -0.11101,-0.1537 -0.29033,-0.30741 -0.47819,-0.52942 -0.18786,-0.22202 -0.47819,-0.4355 -0.52943,-0.51235 -0.0512,-0.0769 -0.29033,-0.65751 -0.34156,-0.76852 -0.0512,-0.11101 -0.22202,-0.45258 -0.24764,-0.52089 -0.0256,-0.0683 -0.12809,-0.5465 -0.26471,-0.72583 -0.13663,-0.17932 -0.18786,-0.37572 -0.20494,-0.41841 -0.0171,-0.0427 -0.2391,-0.73437 -0.27325,-0.94785 -0.0342,-0.21347 -0.0427,-0.49527 -0.0768,-0.73436 -0.0342,-0.2391 -0.11955,-0.49527 -0.14517,-0.74291 -0.0256,-0.24763 -0.0427,-0.23909 -0.0683,-0.60627 -0.0256,-0.36719 -0.0171,-0.38426 -0.0427,-0.76852 -0.0256,-0.38427 -0.0171,-0.4355 -0.0256,-0.64044 -0.009,-0.20494 -0.0598,-0.87099 -0.0598,-0.87099 l 0.16245,-30.32449 c 0,0 0,-0.33813 -0.0966,-0.57965 -0.0966,-0.24153 -0.19322,-0.82118 -0.38644,-0.94194 -0.19321,-0.12076 -0.14491,-0.0966 -0.24152,-0.24153 -0.0966,-0.14491 -0.48304,-0.50719 -0.48304,-0.50719 0,0 -0.19322,-0.12076 -0.28983,-0.12076 -0.0966,0 -0.41059,-0.0966 -0.41059,-0.0966 0,0 0.0242,0 -0.12076,-0.0483 -0.14492,-0.0483 -0.28983,-0.0725 -0.28983,-0.0725 l -0.33813,-0.0483 z"
       id="path21401" />
    <path
       id="path21463"
       style="display:inline;fill:#1a1131;fill-opacity:1;stroke:#1a1131;stroke-width:0.946;stroke-opacity:1"
       inkscape:label="B- Main"
       d="m 555.28125,520.24805 c -0.11096,-0.004 -0.28665,0.0177 -1.28516,0.084 -2.66268,0.17678 -2.66211,2.65039 -2.66211,2.65039 l -0.0215,48.97852 c 0,0 -0.0157,-0.2578 0.0234,2.42968 0.0391,2.68732 2.64844,2.69532 2.64844,2.69532 -10e-6,0 27.56662,-0.0534 27.69921,-0.0645 0.13258,-0.011 0.64012,0 0.69532,0 0.0553,0 2.26511,-0.25524 2.35351,-0.27734 0.0884,-0.0221 0.16615,-0.0112 0.61914,-0.0664 0.45299,-0.0552 0.80664,-0.0215 0.80664,-0.0215 0,0 0.86216,0.0111 0.93946,0 0.0773,-0.011 0.80637,-0.0776 1.02734,-0.16602 0.22097,-0.0884 0.57467,-0.13096 0.83984,-0.19726 0.26516,-0.0663 0.32106,-0.0679 0.75196,-0.15625 0.43089,-0.0884 0.65067,-0.088 0.8164,-0.1543 0.16573,-0.0662 0.68523,-0.099 0.87305,-0.12109 0.18783,-0.0221 0.7069,-0.14474 1.38086,-0.24414 0.67396,-0.0994 0.81731,-0.19871 0.96094,-0.25391 0.14364,-0.0552 1.5366,-0.70641 1.625,-0.72851 0.0884,-0.0221 0.97276,-0.46362 1.03906,-0.50782 0.0663,-0.0442 0.69531,-0.38672 0.69531,-0.38672 0,0 0.41941,-0.26573 0.47461,-0.33203 0.0552,-0.0663 0.54112,-0.4741 0.60742,-0.5625 0.0663,-0.0884 0.3759,-0.28855 0.51953,-0.37695 0.14363,-0.0884 0.77356,-0.83933 0.80664,-0.89453 0.0331,-0.0552 0.93946,-1.00586 0.93946,-1.00586 l 0.79492,-1.20313 0.43164,-0.59765 c 0,0 0.46495,-0.83861 0.49805,-0.88281 0.0331,-0.0442 0.25278,-0.6864 0.33008,-0.79688 0.0773,-0.11049 0.23191,-0.53013 0.28711,-0.64062 0.0552,-0.11048 0.21093,-0.6616 0.21093,-0.7168 0,-0.0552 0.3086,-1.23828 0.3086,-1.23828 0,0 0.14453,-0.88354 0.14453,-0.92774 0,-0.0442 0.16612,-0.67479 0.19922,-0.85156 0.0331,-0.17678 0.0422,-0.4532 0.0312,-0.87305 -0.011,-0.41984 -0.01,-0.7845 -0.01,-1.16015 v -0.64063 c 0,-0.20992 -0.0332,-0.93846 -0.0332,-1.11523 0,-0.17678 -0.0332,-0.66211 -0.0332,-0.66211 0,0 -0.14402,-0.6749 -0.23242,-0.91797 -0.0884,-0.24306 -0.0542,-0.29784 -0.10937,-0.47461 -0.0553,-0.17678 -0.0997,-0.48656 -0.13282,-0.61914 -0.0331,-0.13258 -0.25534,-0.54063 -0.31054,-0.69531 -0.0553,-0.15468 -0.30798,-0.84057 -0.33008,-0.88477 -0.0221,-0.0442 -0.44336,-0.91601 -0.44336,-0.91601 0,0 -0.67393,-0.9631 -0.74023,-1.0625 -0.0663,-0.0994 -0.2866,-0.58481 -0.3418,-0.66211 -0.0552,-0.0773 -0.39775,-0.33188 -0.74023,-0.61914 -0.3425,-0.28727 -0.46385,-0.50676 -0.64063,-0.65039 -0.17677,-0.14363 -0.26512,-0.26645 -0.35352,-0.34375 -0.0884,-0.0773 -0.58604,-0.39721 -0.61914,-0.44141 -0.0331,-0.0442 -1.03906,-0.81836 -1.03906,-0.81836 l -1.31445,-0.76172 c 0,0 -0.95066,-0.42064 -1.00586,-0.43164 -0.0553,-0.0111 -0.87254,-0.36338 -0.92774,-0.39648 -0.0553,-0.0331 -1.01706,-0.25463 -1.10546,-0.26563 -0.0884,-0.0111 -0.66211,-0.21094 -0.66211,-0.21094 l -0.13282,-0.35351 0.35352,-0.3086 0.96094,-0.27539 0.63086,-0.43164 0.97265,-0.50781 0.80664,-0.53125 0.99414,-0.86133 0.67383,-0.68554 0.42969,-0.42969 0.60742,-0.87305 0.31055,-0.38672 0.38672,-0.63086 c 0,0 0.45251,-0.80551 0.47461,-0.88281 0.0221,-0.0773 0.24424,-0.64083 0.27734,-0.74023 0.0331,-0.0994 0.25267,-0.70776 0.26367,-0.75196 0.011,-0.0442 0.23181,-1.0601 0.28711,-1.18164 0.0552,-0.12153 0.0996,-0.41931 0.0996,-0.47461 0,-0.0552 0.0566,-0.61998 0.0566,-0.73047 0,-0.11048 0.17578,-0.87181 0.17578,-0.91601 0,-0.0442 0.0227,-0.63049 0.0117,-0.78516 -0.0111,-0.15468 -0.0118,-0.56352 -0.0449,-0.77344 -0.0331,-0.20991 -0.032,-0.70749 -0.0762,-0.97265 -0.0442,-0.26517 -0.15626,-0.57384 -0.18946,-0.72852 -0.0331,-0.15468 -0.1102,-0.82859 -0.1875,-1.09375 -0.0773,-0.26517 -0.088,-0.39864 -0.12109,-0.49804 -0.0331,-0.0994 -0.69614,-1.47942 -0.77344,-1.62305 -0.0773,-0.14364 -0.18834,-0.34208 -0.29883,-0.50781 -0.11046,-0.16573 -0.25413,-0.43199 -0.38671,-0.63086 -0.13259,-0.19888 -0.27488,-0.40769 -0.33008,-0.46289 -0.0552,-0.0553 -0.50977,-0.58594 -0.50977,-0.58594 0,0 -0.84971,-1.12829 -0.91601,-1.15039 -0.0663,-0.0221 -0.73047,-0.86133 -0.73047,-0.86133 0,0 -0.69572,-0.36497 -0.92774,-0.58594 -0.23202,-0.22097 -0.30821,-0.30949 -0.46289,-0.45312 -0.15468,-0.14364 -0.7307,-0.48448 -0.86328,-0.55078 -0.13258,-0.0663 -0.38645,-0.19879 -0.60742,-0.32032 -0.22097,-0.12153 -0.8823,-0.47605 -0.9707,-0.53125 -0.0884,-0.0552 -0.43265,-0.18699 -0.64258,-0.27539 -0.20992,-0.0884 -0.44181,-0.15574 -0.67383,-0.24414 -0.23202,-0.0884 -0.44052,-0.1434 -0.68359,-0.2207 -0.24307,-0.0773 -0.67423,-0.25329 -0.90625,-0.27539 -0.23202,-0.0221 -0.53093,-0.15625 -0.71875,-0.18945 -0.18783,-0.0331 -0.6851,-0.1101 -0.80664,-0.1543 -0.12153,-0.0442 -0.99414,-0.14258 -0.99414,-0.14258 0,0 -1.28075,-0.0339 -1.36915,-0.0449 -0.0884,-0.011 -1.90039,-0.0664 -1.90039,-0.0664 l -16.58398,-0.0332 c 0,0 -3.4259,0.0227 -8.74023,-0.0215 -3.32147,-0.0276 -3.32484,-0.0994 -3.50977,-0.10547 z m 17.01953,11.56054 c 0.19074,-0.006 -0.17578,0.0664 -0.17578,0.0664 l 6.125,0.0937 c 0,0 2.0625,0.0312 3.96875,1.28125 1.90625,1.25 1.71875,4.09375 1.71875,4.09375 0,0 0.1875,2.25 -1.46875,3.84375 -1.65625,1.59375 -4.4375,1.46875 -4.4375,1.46875 l -6.75,-0.0937 -0.60937,-0.17188 c 0,0 -0.28516,-0.0898 -0.29688,-0.10546 -0.0117,-0.0156 -0.1797,-0.10547 -0.22266,-0.11719 -0.043,-0.0117 -0.21875,-0.125 -0.21875,-0.125 0,0 -0.1289,-0.0898 -0.16015,-0.13281 -0.0312,-0.043 -0.0703,-0.10938 -0.0977,-0.14844 -0.0273,-0.0391 -0.0625,-0.0937 -0.10937,-0.15234 -0.0469,-0.0586 -0.082,-0.11719 -0.082,-0.11719 0,0 -0.0742,-0.10156 -0.10547,-0.14453 -0.0312,-0.043 -0.0781,-0.125 -0.10157,-0.17188 -0.0234,-0.0469 -0.078,-0.13672 -0.0976,-0.1875 -0.0195,-0.0508 -0.0391,-0.11328 -0.0664,-0.16797 -0.0273,-0.0547 -0.0469,-0.10937 -0.0586,-0.15625 -0.0117,-0.0469 -0.0273,-0.0898 -0.0391,-0.13281 -0.0117,-0.043 -0.0391,-0.16406 -0.0391,-0.19922 0,-0.0352 -0.008,-0.10156 -0.0156,-0.13281 -0.008,-0.0312 0.008,-0.10547 0.008,-0.10547 l 0.125,-6.1875 c 0,0 0.15625,-1.71875 2.0625,-1.96875 0.71484,-0.0937 1.03009,-0.12524 1.14453,-0.12891 z m 5.98047,21.56641 h 0.75 c 0,0 0.875,0.15625 1,0.15625 0.125,0 1.40625,0.25 1.40625,0.25 l 1.21875,0.4375 c 0,0 0.5,0.25 0.71875,0.4375 0.21875,0.1875 1.1875,0.8125 1.1875,0.8125 l 1,1.3125 0.46875,1.125 0.1875,1.28125 c 0,0 -0.15625,1.125 -0.15625,1.3125 0,0.1875 -0.0937,0.5 -0.21875,0.9375 -0.125,0.4375 -0.71875,1 -0.71875,1 l -0.5,0.78125 c 0,0 -0.625,0.34375 -0.75,0.4375 -0.125,0.0937 -1.34375,0.4375 -1.34375,0.4375 l -1.5625,0.53125 -1.03125,0.21875 -1.46875,0.0625 -0.75,0.0625 h -6.1875 c 0,0 -2.5,-0.40625 -2.46875,-2.78125 l 0.0312,-6.59375 c 0,0 0.25,-2.21875 2.5625,-2.1875 2.3125,0.0312 1.1875,0 1.1875,0 z" />
    <path
       style="display:inline;fill:#674ee9;fill-opacity:1;stroke:#674ee9;stroke-width:0.946;stroke-opacity:1"
       d="m 78.833114,531.54387 1.738966,-3.38132 2.028794,-2.70506 1.135158,-1.15931 1.388757,-0.95402 1.376682,-0.73664 1.3163,-0.82118 1.606128,-0.54343 1.799347,-0.61588 2.197859,-0.5072 2.089174,-0.35021 2.258241,-0.21737 2.43938,-0.0725 1.75104,-0.0966 2.04087,0.12077 1.69066,0.0725 2.0288,0.2053 2.02879,0.22944 1.67859,0.33814 1.75104,0.51927 1.38876,0.56758 2.05294,0.89363 1.42499,0.72457 1.25592,0.91779 0.92986,0.89364 1.5699,1.76311 0.84533,1.05063 0.57966,1.0627 0.61588,1.28007 0.59173,1.49745 0.37436,1.41291 0.16907,0.86948 c 0,0 0.0121,0.38644 0.0121,0.43474 0,0.0483 -0.0604,0.19322 -0.0845,0.2536 -0.0242,0.0604 -0.0966,0.21737 -0.12076,0.27775 -0.0242,0.0604 -0.16907,0.31398 -0.16907,0.31398 l -0.18114,0.2536 c 0,0 -0.13284,0.26568 -0.21737,0.32606 -0.0845,0.0604 -0.19322,0.16906 -0.3019,0.22944 -0.10869,0.0604 -0.26568,0.13284 -0.32606,0.15699 -0.0604,0.0241 -0.48305,0.24153 -0.48305,0.24153 0,0 -0.42266,0.14491 -0.48304,0.15699 -0.0604,0.0121 -0.4589,0.0725 -0.66419,0.0725 -0.20529,0 -0.56758,0 -0.67626,0 -0.10869,0 -1.49745,0.0845 -1.54575,0.0966 -0.0483,0.0121 -8.64653,0.44682 -8.64653,0.44682 l -0.8574,-0.15699 -0.97817,-0.31398 -0.47097,-0.5072 -0.0725,-0.33813 -0.22944,-0.45889 c 0,0 -0.0966,-0.35021 -0.10869,-0.42267 -0.0121,-0.0725 -0.33813,-0.97817 -0.33813,-0.97817 l -0.38644,-0.5555 c 0,0 -0.45889,-0.49512 -0.53135,-0.59173 -0.0725,-0.0966 -0.37436,-0.47097 -0.65211,-0.67627 -0.27775,-0.20529 -0.64004,-0.49512 -0.68834,-0.53135 -0.0483,-0.0362 -1.46122,-0.78495 -1.46122,-0.78495 l -1.13515,-0.48304 c 0,0 -0.51928,-0.0966 -0.70042,-0.14492 -0.18114,-0.0483 -0.70042,-0.13284 -0.92987,-0.13284 -0.22944,0 -0.89363,0 -0.99024,0.0242 -0.0966,0.0241 -1.569899,0.10868 -1.569899,0.10868 h -0.676265 c 0,0 -0.458893,0.2053 -0.652112,0.2536 -0.193218,0.0483 -0.446817,0.10869 -0.446817,0.10869 0,0 -0.507199,0.35021 -0.640036,0.42266 -0.132838,0.0725 -0.41059,0.19322 -0.495123,0.24153 -0.08453,0.0483 -0.398513,0.31398 -0.398513,0.31398 0,0 -0.265675,0.20529 -0.31398,0.25359 -0.0483,0.0483 -0.21737,0.42267 -0.277751,0.49513 -0.06038,0.0725 -0.338132,0.33813 -0.338132,0.33813 l -0.265676,0.62796 c 0,0 -0.108685,0.38644 -0.108685,0.43474 0,0.0483 -0.120761,0.7608 -0.120761,0.7608 l 0.326056,0.99024 c 0,0 0.241523,0.57966 0.289827,0.60381 0.0483,0.0241 0.458894,0.66419 0.458894,0.66419 0,0 0.446818,0.27775 0.483046,0.32605 0.03623,0.0483 0.519275,0.22945 0.664188,0.31398 0.144914,0.0845 0.700417,0.2053 0.736646,0.26568 0.03623,0.0604 1.461214,0.66419 1.521595,0.67626 0.06038,0.0121 0.990244,0.26568 1.111006,0.31398 0.120761,0.0483 1.171382,0.28983 1.280072,0.31398 0.10868,0.0242 0.38644,0.12077 0.72457,0.18115 0.33813,0.0604 0.99024,0.21737 1.111,0.25359 0.12077,0.0362 0.54343,0.13284 0.79703,0.19322 0.2536,0.0604 0.67626,0.14492 0.89364,0.18115 0.21737,0.0362 0.59173,0.0725 0.78495,0.13283 0.19321,0.0604 2.02879,0.7125 2.11332,0.74872 0.0845,0.0362 1.89596,0.33814 1.98049,0.41059 0.0845,0.0725 0.94194,0.35021 1.14724,0.41059 0.20529,0.0604 1.12308,0.26568 1.3646,0.35021 0.24152,0.0845 0.78495,0.31398 0.92986,0.41059 0.14492,0.0966 1.25592,0.35021 1.37669,0.45889 0.12076,0.10869 0.68834,0.36229 1.13515,0.44682 0.44682,0.0845 1.12309,0.2053 1.23177,0.2536 0.10869,0.0483 2.08917,1.28007 2.14956,1.3163 0.0604,0.0362 1.34045,0.64004 1.41291,0.68834 0.0725,0.0483 0.67626,0.53135 0.82117,0.66419 0.14492,0.13284 1.0144,0.8091 1.0627,0.83325 0.0483,0.0242 0.99025,0.91779 0.99025,0.91779 l 1.25592,1.5699 c 0,0 0.49512,0.78495 0.5555,0.88156 0.0604,0.0966 0.54343,0.86948 0.57966,0.91779 0.0362,0.0483 0.36228,0.74872 0.37436,0.8091 0.0121,0.0604 0.79702,1.77519 0.79702,1.77519 0,0 0.24153,0.7125 0.27776,0.88156 0.0362,0.16907 0.20529,1.35253 0.22944,1.46122 0.0241,0.10868 0.0725,0.96609 0.0725,0.96609 0,0 0.0845,1.35253 0.0845,1.53367 0,0.18114 0,0.82118 -0.0241,0.97817 -0.0242,0.15699 -0.12076,0.73664 -0.14491,0.86948 -0.0242,0.13284 -0.13284,1.28007 -0.13284,1.28007 l -0.13284,1.268 -0.45889,1.21969 -0.37436,0.8091 -0.31398,0.92987 -0.61589,1.3163 c 0,0 -0.35021,0.79702 -0.42266,0.88156 -0.0725,0.0845 -0.30191,0.37436 -0.48305,0.64003 -0.18114,0.26568 -0.90571,1.19554 -0.90571,1.19554 l -0.66419,0.85741 -0.64003,0.61588 -0.88156,0.90571 -0.90571,0.70042 -1.19554,0.85741 -1.36461,0.82118 -1.25592,0.61588 -0.78495,0.53135 c 0,0 -0.84533,0.28983 -0.89363,0.28983 -0.0483,0 -0.9661,0.27775 -0.9661,0.27775 l -1.17138,0.39851 -1.96841,0.39851 -2.43939,0.57966 -2.24616,0.14491 -1.59405,0.0966 c 0,0 -1.3163,0.0483 -1.37668,0.0604 -0.0604,0.0121 -2.51184,-0.0362 -2.51184,-0.0362 l -1.956341,-0.0483 c 0,0 -1.94426,-0.12076 -2.004641,-0.12076 -0.06038,0 -1.775194,-0.12076 -1.775194,-0.12076 0,0 -1.340453,-0.35021 -1.521595,-0.35021 -0.181142,0 -1.594052,-0.22945 -1.72689,-0.2536 -0.132837,-0.0241 -1.859727,-0.5555 -1.859727,-0.5555 l -1.533671,-0.59173 -1.666509,-0.78495 -2.149555,-1.41291 c 0,0 -1.111006,-0.7608 -1.15931,-0.77288 -0.0483,-0.0121 -0.676265,-0.37436 -0.676265,-0.37436 l -0.869483,-0.8574 c 0,0 -0.664188,-0.77288 -0.700416,-0.85741 -0.03623,-0.0845 -0.905712,-1.268 -0.990245,-1.38876 -0.08453,-0.12076 -0.603807,-0.79702 -0.772873,-1.08685 -0.169067,-0.28983 -0.652113,-1.09893 -0.797026,-1.42499 -0.144914,-0.32605 -0.531351,-1.24384 -0.652113,-1.50952 -0.120761,-0.26567 -0.338132,-0.73664 -0.422665,-0.92986 -0.08453,-0.19322 -0.241523,-0.7608 -0.362284,-1.0627 -0.120762,-0.30191 -0.47073,-1.67042 -0.479269,-1.71311 -0.0085,-0.0427 -0.10247,-0.70021 -0.119548,-0.75999 -0.01708,-0.0598 -0.05123,-0.65751 -0.05123,-0.76852 0,-0.11101 0.02562,-0.42695 0.03416,-0.48673 0.0085,-0.0598 0.07685,-0.1964 0.145165,-0.24763 0.06831,-0.0512 0.247635,-0.28179 0.281791,-0.32449 0.03416,-0.0427 0.02562,-0.0854 0.153705,-0.20494 0.128087,-0.11955 0.204939,-0.18786 0.298869,-0.23056 0.09393,-0.0427 0.119548,-0.0769 0.273252,-0.12808 0.153705,-0.0512 0.358644,-0.16225 0.444035,-0.17932 0.08539,-0.0171 0.298869,-0.0939 0.367182,-0.11955 0.06831,-0.0256 0.179322,-0.0939 0.264713,-0.10247 0.08539,-0.009 13.500362,-0.96492 13.500362,-0.96492 l 0.3928,0.0598 c 0,0 0.273252,0.24764 0.290331,0.28179 0.01708,0.0342 0.170782,0.64044 0.170782,0.69167 0,0.0512 0.256174,1.34918 0.256174,1.34918 0,0 -0.02562,0.1964 0.03416,0.34157 0.05977,0.14516 0.239095,0.56358 0.256173,0.61482 0.01708,0.0512 0.07685,0.44403 0.119548,0.59774 0.0427,0.1537 0.247635,0.45257 0.324487,0.56358 0.07685,0.11101 0.213478,0.26471 0.333026,0.50381 0.119548,0.23909 0.145165,0.21347 0.29887,0.50381 0.153704,0.29033 0.409878,0.67459 0.520886,0.77706 0.111009,0.10247 0.264713,0.17932 0.401339,0.38426 0.136626,0.20494 0.341566,0.3928 0.426957,0.47819 0.08539,0.0854 0.367182,0.40988 0.495269,0.51235 0.128087,0.10247 0.512348,0.46111 0.683131,0.57212 0.170782,0.11101 0.836834,0.34156 1.050312,0.45257 0.213479,0.11101 0.623357,0.35864 0.922226,0.44404 0.29887,0.0854 0.717287,0.17932 0.870991,0.21347 0.153704,0.0342 0.444034,0.0769 0.768524,0.0854 0.32448,0.009 0.69167,0.009 0.80267,0.0256 0.11101,0.0171 0.8283,0.0512 1.18694,0.10247 0.35865,0.0512 0.54651,0.0512 0.8283,0.0256 0.28179,-0.0256 0.58066,-0.0854 0.97346,-0.1537 0.3928,-0.0683 1.65659,-0.31595 1.7676,-0.35865 0.11101,-0.0427 0.0256,-0.0598 0.42696,-0.18786 0.40133,-0.12809 1.1784,-0.57212 1.26379,-0.63189 0.0854,-0.0598 0.34156,-0.25618 0.52088,-0.48673 0.17933,-0.23056 0.35011,-0.45258 0.46112,-0.60628 0.11101,-0.15371 0.34156,-0.45258 0.41841,-0.57212 0.0769,-0.11955 0.17933,-0.22202 0.27326,-0.42696 0.0939,-0.20494 0.0598,-0.13663 0.20494,-0.46111 0.14516,-0.32449 0.23909,-0.52089 0.29033,-0.71729 0.0512,-0.1964 0.0683,-0.2391 0.111,-0.50381 0.0427,-0.26471 0.0598,-0.48673 0.10247,-0.982 0.0427,-0.49527 0.0427,-0.65751 0.0427,-0.65751 0,0 -0.29887,-0.982 -0.35864,-1.08447 -0.0598,-0.10247 -0.24764,-0.44404 -0.32449,-0.56358 -0.0769,-0.11955 -0.26471,-0.3928 -0.35011,-0.51235 -0.0854,-0.11955 -0.11954,-0.11101 -0.35864,-0.29887 -0.23909,-0.18786 -0.45257,-0.26471 -0.61482,-0.42696 -0.16224,-0.16224 -0.48673,-0.37572 -0.60627,-0.44403 -0.11955,-0.0683 -0.83684,-0.58066 -0.89661,-0.61482 -0.0598,-0.0342 -0.53797,-0.21348 -0.62336,-0.28179 -0.0854,-0.0683 -0.56358,-0.26471 -0.81122,-0.38426 -0.24763,-0.11955 -0.22201,-0.0512 -0.86245,-0.37572 -0.64043,-0.32449 -0.68313,-0.36719 -0.80268,-0.38426 -0.11954,-0.0171 -0.90514,-0.13663 -1.01615,-0.17079 -0.11101,-0.0342 -0.6319,-0.16224 -0.75998,-0.18786 -0.12809,-0.0256 -0.7856,-0.16224 -1.00762,-0.1964 -0.22202,-0.0342 -1.38334,-0.36718 -1.38334,-0.36718 0,0 -1.391878,-0.23056 -1.537043,-0.33303 -0.145165,-0.10246 -0.666052,-0.25617 -0.922226,-0.32448 -0.256174,-0.0683 -0.572121,-0.14517 -0.836834,-0.22202 -0.264713,-0.0769 -0.537965,-0.14516 -0.717287,-0.18786 -0.179322,-0.0427 -0.315948,-0.11955 -0.648974,-0.20494 -0.333026,-0.0854 -0.990539,-0.22202 -1.152782,-0.26471 -0.162244,-0.0427 -0.49527,-0.10247 -0.819756,-0.22202 -0.324487,-0.11955 -0.683131,-0.28179 -0.836835,-0.32449 -0.153704,-0.0427 -1.502887,-0.49527 -1.502887,-0.49527 0,0 -1.041773,-0.53796 -1.135704,-0.60627 -0.09393,-0.0683 -0.930765,-0.41842 -1.118626,-0.46966 -0.18786,-0.0512 -1.289408,-0.57212 -1.400417,-0.7002 -0.111008,-0.12809 -0.674591,-0.40134 -0.77706,-0.46966 -0.10247,-0.0683 -0.768522,-0.40134 -0.819757,-0.49527 -0.05123,-0.0939 -1.204017,-0.85391 -1.204017,-0.85391 0,0 -1.058852,-0.48673 -1.110086,-0.57212 -0.05123,-0.0854 -0.529426,-0.52943 -0.640435,-0.69167 -0.111009,-0.16224 -0.631895,-0.88807 -0.802678,-1.07593 -0.170783,-0.18786 -0.3928,-0.42696 -0.512348,-0.60628 -0.119548,-0.17932 -0.48673,-0.49527 -0.5892,-0.67459 -0.102469,-0.17932 -0.546504,-0.87953 -0.657512,-1.16132 -0.111009,-0.28179 -0.264713,-0.53797 -0.367183,-0.79414 -0.10247,-0.25617 -0.162243,-0.36718 -0.239096,-0.52089 -0.07685,-0.1537 -0.273252,-0.55504 -0.333026,-0.69167 -0.05977,-0.13662 -0.153704,-0.51234 -0.153704,-0.51234 0,0 -0.298869,-0.96493 -0.298869,-1.13571 0,-0.17078 0.02562,-0.75998 -0.07685,-1.12716 -0.102469,-0.36719 -0.222017,-0.92223 -0.247634,-1.20402 -0.02562,-0.28179 -0.136626,-0.95638 -0.136626,-1.05031 0,-0.0939 0.153704,-0.67459 0.153704,-0.79414 0,-0.11955 0.05977,-0.87099 0.07685,-0.982 0.01708,-0.11101 0.119548,-0.79414 0.10247,-0.74291 -0.01708,0.0512 0.153704,-0.7429 0.153704,-0.7429 l 0.153704,-0.46965 z"
       id="path20641"
       inkscape:label="S body" />
    <path
       d="m 473.68934,523.01088 a 2.645669,2.645669 0 0 0 -2.64567,-2.64567 h -12.30435 a 2.645669,2.645669 0 0 0 -2.64567,2.64567 v 17.19298 h -19.14256 v -17.19298 a 2.645669,2.645669 0 0 0 -2.64567,-2.64567 h -12.227 a 2.645669,2.645669 0 0 0 -2.64567,2.64567 v 51.40158 a 2.645669,2.645669 0 0 0 2.64567,2.64567 h 12.227 a 2.645669,2.645669 0 0 0 2.64567,-2.64567 v -17.64107 a 2.645669,2.645669 0 0 1 2.64567,-2.64566 h 13.85122 a 2.645669,2.645669 0 0 1 2.64567,2.64566 v 17.64107 a 2.645669,2.645669 0 0 0 2.64567,2.64567 h 12.30435 a 2.645669,2.645669 0 0 0 2.64567,-2.64567 z"
       style="fill:#1a1131;fill-opacity:1;stroke:#1a1131;stroke-opacity:1"
       id="path4689" />
    <path
       id="path4753"
       style="fill:none;stroke:#674ee9;stroke-opacity:1"
       d="m 106.23651,531.69606 c 0.64975,0.71883 1.29949,1.43766 1.74507,2.2623 0.22527,0.41692 0.39836,0.86088 0.54104,1.32059 m -8.10622,-5.32313 c 1.13521,0.0452 2.27042,0.0904 3.31128,0.43506 0.88138,0.29189 1.6951,0.79853 2.50883,1.30518 m -10.422063,-0.44473 c 0.62533,-0.37664 1.25066,-0.75329 1.92392,-0.97163 0.84263,-0.27327 1.76033,-0.29857 2.678033,-0.32388 m -6.148823,4.44726 c 0.0704,-0.60031 0.14087,-1.20062 0.38672,-1.71606 0.25796,-0.54086 0.70906,-0.98828 1.16015,-1.43569 m -0.2707,5.58808 c -0.3718,-0.35679 -0.7436,-0.71359 -0.95713,-1.15049 -0.18903,-0.38676 -0.25404,-0.8363 -0.31904,-1.28584 m 7.154293,4.52461 c -1.29547,-0.25188 -2.590943,-0.50376 -3.789843,-1.00547 -0.71927,-0.30099 -1.40378,-0.6919 -2.08828,-1.08281 m 22.332983,7.09629 c -2.18243,-0.89341 -4.36486,-1.78682 -6.59838,-2.51851 -3.21493,-1.0532 -6.5357,-1.77135 -9.85648,-2.4895 m 23.6865,11.29218 c -0.91418,-1.22291 -1.82836,-2.44582 -2.93906,-3.44663 -1.26178,-1.13693 -2.77718,-1.98724 -4.29258,-2.83754 m 9.49394,14.67595 c -0.0884,-1.49997 -0.17677,-2.99995 -0.56558,-4.41825 -0.37713,-1.37574 -1.03693,-2.67464 -1.69672,-3.97353 m -0.7541,18.44646 c 0.87978,-1.56722 1.75956,-3.13445 2.2623,-4.81464 0.50031,-1.67209 0.62721,-3.45607 0.7541,-5.24004 m -11.44686,17.03495 c 1.6947,-0.87022 3.3894,-1.74044 4.81464,-2.93422 1.37165,-1.14889 2.49374,-2.59747 3.61582,-4.04605 m -22.08162,9.35859 c 2.53561,-0.0608 5.07122,-0.12168 7.53134,-0.59457 2.07577,-0.39902 4.09779,-1.09138 6.11982,-1.78375 m -33.683183,-3.19042 c 2.52838,1.61345 5.05675,3.2269 7.79238,4.17656 3.81164,1.32318 8.02564,1.35768 12.239643,1.39218 M 76.432867,561.25793 c 0.32546,1.69592 0.75034,3.34703 1.44751,4.8754 1.04532,2.29156 2.70279,4.3072 4.36025,6.32285 m -5.80776,-11.19825 c -0.0649,-0.33833 -0.0631,-0.68611 0.005,-1.02376 0.0684,-0.33765 0.20206,-0.65871 0.39351,-0.94512 0.19145,-0.28641 0.43702,-0.53269 0.72287,-0.72497 0.19404,-0.13053 0.40453,-0.23475 0.62597,-0.30994 0.22144,-0.0752 0.45187,-0.1207 0.68527,-0.13532 m 13.73918,-0.85607 -13.739,0.86 m 15.94331,5.32289 c -0.51443,-0.85016 -1.02887,-1.70032 -1.38252,-2.61035 -0.43942,-1.13076 -0.6306,-2.35395 -0.82177,-3.57715 m 9.938663,9.62929 c -1.55911,-0.11889 -3.118223,-0.23778 -4.447263,-0.86045 -1.22629,-0.57452 -2.2567,-1.57793 -3.28711,-2.58134 m 13.515813,1.68222 c -0.79688,0.5121 -1.59375,1.0242 -2.4605,1.31968 -1.03993,0.35452 -2.18043,0.39721 -3.32094,0.43989 m 7.81171,-5.83945 c -0.0979,0.76132 -0.19589,1.52264 -0.50757,2.18013 -0.339,0.71513 -0.93085,1.30744 -1.5227,1.89975 m 0.0967,-8.0244 c 0.56359,0.58047 1.12718,1.16094 1.45019,1.85625 0.29394,0.6327 0.38867,1.36049 0.4834,2.08827 m -10.905463,-7.23163 c 1.969773,0.40803 3.939543,0.81606 5.762113,1.59521 1.10606,0.47285 2.15791,1.08237 3.20976,1.6919 m -25.407403,-10.1707 c 2.13709,1.40518 4.27419,2.81037 6.56455,3.86718 3.1028,1.4317 6.48689,2.22405 9.87098,3.01641 m -21.38552,-17.82772 c 0.20265,2.11577 0.4053,4.23153 1.23749,6.06181 0.82502,1.8145 2.26876,3.34841 3.7125,4.88232 m -2.41699,-19.20057 c -0.73874,1.3037 -1.47748,2.6074 -1.89975,4.00737 -0.40906,1.35613 -0.52116,2.8026 -0.63325,4.24907 m 10.15135,-14.36659 c -1.56614,0.7769 -3.13229,1.55379 -4.44726,2.63936 -1.19541,0.98686 -2.18325,2.22883 -3.17109,3.47079 m 21.559553,-8.33378 c -2.662693,0.04 -5.325383,0.08 -7.913223,0.55591 -2.04034,0.37524 -4.03416,1.02148 -6.02798,1.66772 m 30.512083,1.81758 c -2.2884,-1.17461 -4.57681,-2.34922 -6.99476,-3.03091 -3.05425,-0.86108 -6.31518,-0.93569 -9.57612,-1.0103 m 22.7622,13.8479 c -0.36919,-1.62136 -0.85419,-3.17938 -1.64254,-4.57149 -1.11309,-1.96556 -2.83093,-3.60038 -4.54878,-5.2352 m 6.19132,9.80669 c 0.0765,0.33591 0.0866,0.68354 0.0299,1.02334 -0.0568,0.33979 -0.17936,0.66525 -0.36088,0.95806 -0.18152,0.2928 -0.41849,0.54735 -0.69758,0.74932 -0.20323,0.14707 -0.42634,0.26448 -0.66263,0.34872 -0.23628,0.0842 -0.48336,0.13444 -0.73378,0.1491 m -11.29019,0.6579 11.29,-0.66 m -11.28965,0.6631 c -0.34392,0.0201 -0.68848,-0.0271 -1.01429,-0.13904 -0.32582,-0.11194 -0.62665,-0.28644 -0.88557,-0.5137 -0.18239,-0.16008 -0.34188,-0.3445 -0.474,-0.54806 -0.13212,-0.20356 -0.2356,-0.42433 -0.30754,-0.6561" />
    <path
       d="m 209.1843,534.36441 a 2.645669,2.645669 0 0 0 2.64567,-2.64567 v -8.70786 a 2.645669,2.645669 0 0 0 -2.64567,-2.64567 h -47.95978 a 2.645669,2.645669 0 0 0 -2.64567,2.64567 v 8.70786 a 2.645669,2.645669 0 0 0 2.64567,2.64567 h 12.57505 a 2.645669,2.645669 0 0 1 2.64567,2.64567 v 37.40238 a 2.645669,2.645669 0 0 0 2.64567,2.64566 h 12.227 a 2.645669,2.645669 0 0 0 2.64567,-2.64566 v -37.40238 a 2.645669,2.645669 0 0 1 2.64567,-2.64567 z"
       style="fill:#674ee9;fill-opacity:1;stroke:#674ee9;stroke-opacity:1"
       id="path4755" />
    <path
       d="m 152.00463,563.92568 a 2.645669,2.645669 0 0 0 -2.64567,-2.64566 h -11.53091 a 2.645669,2.645669 0 0 0 -2.64567,2.64566 v 10.48678 a 2.645669,2.645669 0 0 0 2.64567,2.64566 h 11.53091 a 2.645669,2.645669 0 0 0 2.64567,-2.64566 z"
       style="fill:#674ee9;fill-opacity:1;stroke:#674ee9;stroke-opacity:1"
       id="path4757" />
    <path
       id="path4759"
       style="fill:#674ee9;fill-opacity:1;stroke:#674ee9;stroke-opacity:1"
       d="m 251.48242,520.36523 a 2.645669,2.645669 0 0 0 -2.47656,1.71485 l -19.31836,51.40234 a 2.645669,2.645669 0 0 0 2.47656,3.57617 h 12.08985 a 2.645669,2.645669 0 0 0 2.53711,-1.89648 l 1.64257,-5.56641 a 2.645669,2.645669 0 0 1 2.53711,-1.89648 h 15.94922 a 2.645669,2.645669 0 0 1 2.5332,1.8789 l 1.69727,5.60157 a 2.645669,2.645669 0 0 0 2.53125,1.8789 h 12.56055 a 2.645669,2.645669 0 0 0 2.47656,-3.57617 L 269.4043,522.08008 a 2.645669,2.645669 0 0 0 -2.47657,-1.71485 z M 259,541.4707 a 2.645669,2.645669 0 0 1 2.5332,1.86914 l 2.66407,8.67774 a 2.645669,2.645669 0 0 1 -2.5293,3.42187 v 0.002 h -5.30078 a 2.645669,2.645669 0 0 1 -2.53125,-3.41602 l 2.63672,-8.67773 A 2.645669,2.645669 0 0 1 259,541.4707 Z" />
    <path
       d="m 209.29361,561.28002 a 2.645669,2.645669 0 0 0 -2.64567,2.64566 v 10.48678 a 2.645669,2.645669 0 0 0 2.64567,2.64566 h 11.53091 a 2.645669,2.645669 0 0 0 2.64567,-2.64566 v -10.48678 a 2.645669,2.645669 0 0 0 -2.64567,-2.64566 z"
       style="fill:#674ee9;fill-opacity:1;stroke:#674ee9;stroke-opacity:1"
       id="path4763" />
    <path
       d="m 297.27204,561.28002 a 2.645669,2.645669 0 0 0 -2.64567,2.64566 v 10.48678 a 2.645669,2.645669 0 0 0 2.64567,2.64566 h 11.53094 a 2.645669,2.645669 0 0 0 2.64567,-2.64566 v -10.48678 a 2.645669,2.645669 0 0 0 -2.64567,-2.64566 z"
       style="fill:#674ee9;fill-opacity:1;stroke:#674ee9;stroke-opacity:1"
       id="path4765" />
    <path
       d="m 325.34781,520.36521 a 2.645669,2.645669 0 0 0 -2.64567,2.64567 v 51.40158 a 2.645669,2.645669 0 0 0 2.64567,2.64566 h 12.2657 a 2.645669,2.645669 0 0 0 2.64567,-2.64566 v -51.40158 a 2.645669,2.645669 0 0 0 -2.64567,-2.64567 z"
       style="fill:#674ee9;fill-opacity:1;stroke:#674ee9;stroke-opacity:1"
       id="path4767" />
    <path
       d="m 365.9986,577.05812 a 2.645669,2.645669 0 0 0 2.64567,-2.64566 v -10.48678 a 2.645669,2.645669 0 0 0 -2.64567,-2.64566 h -11.5309 a 2.645669,2.645669 0 0 0 -2.64567,2.64566 v 10.48678 a 2.645669,2.645669 0 0 0 2.64567,2.64566 z"
       style="fill:#674ee9;fill-opacity:1;stroke:#674ee9;stroke-opacity:1"
       id="path4769" />
    <path
       d="m 539.70217,523.01088 a 2.645669,2.645669 0 0 0 -2.64567,-2.64567"
       style="fill:none;stroke:#1a1131;stroke-opacity:1"
       id="path4773" />
    <path
       style="fill:none;stroke:#1a1131;stroke-opacity:1"
       d="m 537.05667,520.36275 h -12.188"
       id="path4775" />
    <path
       d="m 524.86817,520.36521 a 2.645669,2.645669 0 0 0 -2.64567,2.64567"
       style="fill:none;stroke:#1a1131;stroke-opacity:1"
       id="path4777" />
    <path
       style="fill:none;stroke:#1a1131;stroke-opacity:1"
       d="m 522.22267,523.01275 v 31.93"
       id="path4779" />
    <path
       d="m 522.2225,554.94629 c -0.0725,1.44502 -0.14493,2.89004 -0.64292,4.17769 -0.43071,1.11369 -1.17973,2.10965 -1.92876,3.10561"
       style="fill:none;stroke:#1a1131;stroke-opacity:1"
       id="path4781" />
    <path
       d="m 519.65082,562.22959 c -0.97996,0.7487 -1.95992,1.4974 -3.05991,1.92717 -1.24324,0.48574 -2.63981,0.56407 -4.03637,0.64239"
       style="fill:none;stroke:#1a1131;stroke-opacity:1"
       id="path4783" />
    <path
       d="m 512.55454,564.79915 c -1.4076,-0.0793 -2.81519,-0.15854 -4.06539,-0.65198 -1.10519,-0.43621 -2.08738,-1.19608 -3.06957,-1.95595"
       style="fill:none;stroke:#1a1131;stroke-opacity:1"
       id="path4785" />
    <path
       d="m 505.41958,562.19122 c -0.7492,-0.99907 -1.4984,-1.99814 -1.92875,-3.1152 -0.4909,-1.27423 -0.56692,-2.70198 -0.64293,-4.12973"
       style="fill:none;stroke:#1a1131;stroke-opacity:1"
       id="path4787" />
    <path
       style="fill:none;stroke:#1a1131;stroke-opacity:1"
       d="m 502.84767,554.94275 v -31.93"
       id="path4789" />
    <path
       d="m 502.8479,523.01088 a 2.645669,2.645669 0 0 0 -2.64567,-2.64567"
       style="fill:none;stroke:#1a1131;stroke-opacity:1"
       id="path4791" />
    <path
       style="fill:none;stroke:#1a1131;stroke-opacity:1"
       d="m 500.20267,520.36275 h -12.189"
       id="path4793" />
    <path
       d="m 488.0139,520.36521 a 2.645669,2.645669 0 0 0 -2.64567,2.64567"
       style="fill:none;stroke:#1a1131;stroke-opacity:1"
       id="path4795" />
    <path
       style="fill:none;stroke:#1a1131;stroke-opacity:1"
       d="m 485.36867,523.01275 v 31.13"
       id="path4797" />
    <path
       d="m 485.36823,554.14204 c 0.0861,1.50232 0.17227,3.00463 0.40606,4.48276 0.27241,1.7223 0.74529,3.41176 1.21816,5.10121"
       style="fill:none;stroke:#1a1131;stroke-opacity:1"
       id="path4799" />
    <path
       d="m 486.99245,563.72601 c 0.42587,1.13437 0.85173,2.26874 1.43569,3.31377 0.63913,1.14376 1.46763,2.1805 2.29614,3.21724"
       style="fill:none;stroke:#1a1131;stroke-opacity:1"
       id="path4801" />
    <path
       d="m 490.72428,570.25702 c 0.91436,0.98648 1.82871,1.97297 2.86655,2.80665 0.97615,0.78412 2.06153,1.43307 3.14692,2.08201"
       style="fill:none;stroke:#1a1131;stroke-opacity:1"
       id="path4803" />
    <path
       d="m 496.73775,575.14568 c 1.21415,0.53131 2.42829,1.06262 3.68833,1.43471 1.45607,0.42999 2.97342,0.64737 4.49077,0.86475"
       style="fill:none;stroke:#1a1131;stroke-opacity:1"
       id="path4805" />
    <path
       d="m 504.91685,577.44514 c 1.5663,0.16901 3.13261,0.33802 4.70346,0.43484 1.43959,0.0887 2.883,0.11684 4.32641,0.14495"
       style="fill:none;stroke:#1a1131;stroke-opacity:1"
       id="path4807" />
    <path
       d="m 513.94672,578.02493 c 2.23057,-0.0545 4.46113,-0.10906 6.64188,-0.47343 1.89751,-0.31704 3.7573,-0.86867 5.61709,-1.42029"
       style="fill:none;stroke:#1a1131;stroke-opacity:1"
       id="path4809" />
    <path
       d="m 526.20569,576.13121 c 1.23552,-0.55874 2.47103,-1.11748 3.59165,-1.84998 1.23555,-0.80762 2.33142,-1.82647 3.42729,-2.84532"
       style="fill:none;stroke:#1a1131;stroke-opacity:1"
       id="path4811" />
    <path
       d="m 533.22463,571.43591 c 1.04094,-1.16108 2.08187,-2.32215 2.90039,-3.62315 0.81863,-1.30117 1.41478,-2.7423 2.01094,-4.18343"
       style="fill:none;stroke:#1a1131;stroke-opacity:1"
       id="path4813" />
    <path
       d="m 538.13596,563.62933 c 0.45678,-1.52368 0.91356,-3.04736 1.17466,-4.60361 0.26924,-1.60481 0.33039,-3.24424 0.39155,-4.88368"
       style="fill:none;stroke:#1a1131;stroke-opacity:1"
       id="path4815" />
    <path
       style="fill:none;stroke:#1a1131;stroke-opacity:1"
       d="m 539.70267,554.14275 v -31.13"
       id="path4817" />
    <path
       d="m 551.3424,574.41246 a 2.645669,2.645669 0 0 0 2.64567,2.64567"
       style="fill:none;stroke:#1a1131;stroke-opacity:1"
       id="path4819" />
    <path
       style="fill:none;stroke:#1a1131;stroke-opacity:1"
       d="m 553.98767,577.06275 h 27.596"
       id="path4821" />
    <path
       d="m 581.58378,577.05813 c 0.97732,-0.0551 1.95463,-0.11027 2.92937,-0.19336 1.64521,-0.14026 3.2831,-0.36017 4.92099,-0.58008"
       style="fill:none;stroke:#1a1131;stroke-opacity:1"
       id="path4823" />
    <path
       d="m 589.43414,576.28469 c 1.31539,-0.18365 2.63077,-0.3673 3.88653,-0.75411 0.94414,-0.29082 1.85459,-0.69648 2.76503,-1.10213"
       style="fill:none;stroke:#1a1131;stroke-opacity:1"
       id="path4825" />
    <path
       d="m 596.0857,574.42845 c 1.12236,-0.74317 2.24472,-1.48633 3.18077,-2.417 0.93203,-0.92666 1.67934,-2.03921 2.42666,-3.15175"
       style="fill:none;stroke:#1a1131;stroke-opacity:1"
       id="path4827" />
    <path
       d="m 601.69313,568.8597 c 0.59773,-1.22485 1.19547,-2.4497 1.53722,-3.7415 0.35632,-1.34689 0.43436,-2.76656 0.5124,-4.18623"
       style="fill:none;stroke:#1a1131;stroke-opacity:1"
       id="path4829" />
    <path
       d="m 603.74275,560.93197 c -0.0971,-1.69868 -0.19414,-3.39736 -0.72027,-4.95483 -0.4811,-1.42417 -1.32094,-2.73027 -2.16079,-4.03637"
       style="fill:none;stroke:#1a1131;stroke-opacity:1"
       id="path4831" />
    <path
       d="m 600.86169,551.94077 c -1.16908,-1.12084 -2.33816,-2.24167 -3.68833,-3.05025 -1.59842,-0.95724 -3.45064,-1.47683 -5.30287,-1.99643"
       style="fill:none;stroke:#1a1131;stroke-opacity:1"
       id="path4833" />
    <path
       d="m 591.87049,546.89409 c 1.2282,-0.47105 2.45639,-0.94211 3.53848,-1.64355 0.92901,-0.60222 1.75033,-1.37425 2.57166,-2.14629"
       style="fill:none;stroke:#1a1131;stroke-opacity:1"
       id="path4835" />
    <path
       d="m 597.98063,543.10425 c 0.91358,-1.27027 1.82715,-2.54055 2.34933,-3.95419 0.53755,-1.45525 0.66033,-3.06244 0.7831,-4.66963"
       style="fill:none;stroke:#1a1131;stroke-opacity:1"
       id="path4837" />
    <path
       d="m 601.11306,534.48043 c -0.18237,-1.917 -0.36475,-3.83401 -1.09731,-5.51074 -0.73155,-1.67439 -2.01175,-3.10916 -3.29195,-4.54394"
       style="fill:none;stroke:#1a1131;stroke-opacity:1"
       id="path4839" />
    <path
       d="m 596.7238,524.42575 c -1.72361,-1.18198 -3.44722,-2.36396 -5.34153,-3.04541 -2.25422,-0.81091 -4.75018,-0.91302 -7.24615,-1.01513"
       style="fill:none;stroke:#1a1131;stroke-opacity:1"
       id="path4841" />
    <path
       style="fill:none;stroke:#1a1131;stroke-opacity:1"
       d="m 584.13567,520.36275 h -30.148"
       id="path4843" />
    <path
       d="m 553.98807,520.36521 a 2.645669,2.645669 0 0 0 -2.64567,2.64567"
       style="fill:none;stroke:#1a1131;stroke-opacity:1"
       id="path4845" />
    <path
       style="fill:none;stroke:#1a1131;stroke-opacity:1"
       d="m 551.34267,523.01275 v 51.4"
       id="path4847" />
    <path
       style="fill:none;stroke:#1a1131;stroke-opacity:1"
       d="m 569.01567,562.23275 v -6.2"
       id="path4849" />
    <path
       d="m 571.6611,553.39096 a 2.645669,2.645669 0 0 0 -2.64567,2.64567"
       style="fill:none;stroke:#1a1131;stroke-opacity:1"
       id="path4851" />
    <path
       style="fill:none;stroke:#1a1131;stroke-opacity:1"
       d="m 571.66067,553.39275 h 6.249"
       id="path4853" />
    <path
       d="m 577.90996,553.39096 c 1.33596,0.006 2.67191,0.0124 3.91067,0.38188 0.87507,0.26102 1.70163,0.70334 2.52819,1.14566"
       style="fill:none;stroke:#1a1131;stroke-opacity:1"
       id="path4855" />
    <path
       d="m 584.34882,554.9185 c 0.53573,0.55626 1.07146,1.11253 1.37767,1.77407 0.31535,0.68127 0.38729,1.4742 0.45923,2.26714"
       style="fill:none;stroke:#1a1131;stroke-opacity:1"
       id="path4857" />
    <path
       d="m 586.18572,558.95971 c -0.0683,0.84836 -0.13651,1.69673 -0.46408,2.43149 -0.30961,0.69447 -0.85089,1.28744 -1.39217,1.88042"
       style="fill:none;stroke:#1a1131;stroke-opacity:1"
       id="path4859" />
    <path
       d="m 584.32947,563.27162 c -0.82314,0.46506 -1.64628,0.93012 -2.52333,1.20366 -1.21667,0.37945 -2.53709,0.39033 -3.8575,0.40121"
       style="fill:none;stroke:#1a1131;stroke-opacity:1"
       id="path4861" />
    <path
       style="fill:none;stroke:#1a1131;stroke-opacity:1"
       d="m 577.94867,564.87275 h -6.288"
       id="path4863" />
    <path
       d="m 569.01543,562.23082 a 2.645669,2.645669 0 0 0 2.64567,2.64567"
       style="fill:none;stroke:#1a1131;stroke-opacity:1"
       id="path4865" />
    <path
       style="fill:none;stroke:#1a1131;stroke-opacity:1"
       d="m 569.01567,539.95275 v -5.46"
       id="path4867" />
    <path
       d="m 571.6611,531.85075 a 2.645669,2.645669 0 0 0 -2.64567,2.64567"
       style="fill:none;stroke:#1a1131;stroke-opacity:1"
       id="path4869" />
    <path
       style="fill:none;stroke:#1a1131;stroke-opacity:1"
       d="m 571.66067,531.85275 h 5.089"
       id="path4871" />
    <path
       d="m 576.7498,531.85075 c 1.1598,0.008 2.31959,0.0157 3.38861,0.34804 0.76407,0.23754 1.48176,0.64084 2.19946,1.04414"
       style="fill:none;stroke:#1a1131;stroke-opacity:1"
       id="path4873" />
    <path
       d="m 582.33787,533.24293 c 0.46785,0.52587 0.9357,1.05174 1.20367,1.66289 0.29247,0.66704 0.34684,1.43567 0.40121,2.2043"
       style="fill:none;stroke:#1a1131;stroke-opacity:1"
       id="path4875" />
    <path
       d="m 583.94275,537.11012 c -0.0482,0.81975 -0.0965,1.6395 -0.40121,2.35415 -0.26849,0.62963 -0.73608,1.17768 -1.20367,1.72573"
       style="fill:none;stroke:#1a1131;stroke-opacity:1"
       id="path4877" />
    <path
       d="m 582.33787,541.19 c -0.72723,0.40871 -1.45445,0.81743 -2.22846,1.05864 -1.09601,0.34155 -2.28582,0.34721 -3.47564,0.35288"
       style="fill:none;stroke:#1a1131;stroke-opacity:1"
       id="path4879" />
    <path
       style="fill:none;stroke:#1a1131;stroke-opacity:1"
       d="m 576.63367,542.60275 h -4.973"
       id="path4881" />
    <path
       d="m 569.01543,539.95585 a 2.645669,2.645669 0 0 0 2.64567,2.64567"
       style="fill:none;stroke:#1a1131;stroke-opacity:1"
       id="path4883" />
  </g>
</svg>
